<?xml version="1.0" encoding="UTF-8" standalone="no"?>
<svg
   xmlns:dc="http://purl.org/dc/elements/1.1/"
   xmlns:cc="http://creativecommons.org/ns#"
   xmlns:rdf="http://www.w3.org/1999/02/22-rdf-syntax-ns#"
   xmlns:svg="http://www.w3.org/2000/svg"
   xmlns="http://www.w3.org/2000/svg"
   xmlns:sodipodi="http://sodipodi.sourceforge.net/DTD/sodipodi-0.dtd"
   xmlns:inkscape="http://www.inkscape.org/namespaces/inkscape"
   width="674.71478"
   height="672.0556"
   id="svg2"
   sodipodi:version="0.32"
   inkscape:version="0.91 r13725"
   version="1.0"
   sodipodi:docname="pokeball.svg">
  <defs
     id="defs4" />
  <sodipodi:namedview
     id="base"
     pagecolor="#ffffff"
     bordercolor="#666666"
     borderopacity="1.0"
     gridtolerance="10000"
     guidetolerance="10"
     objecttolerance="10"
     inkscape:pageopacity="0.0"
     inkscape:pageshadow="2"
     inkscape:zoom="0.35"
     inkscape:cx="95.88077"
     inkscape:cy="485.23733"
     inkscape:document-units="px"
     inkscape:current-layer="layer1"
     width="800px"
     height="800px"
     inkscape:window-width="1329"
     inkscape:window-height="709"
     inkscape:window-x="212"
     inkscape:window-y="0"
     showguides="true"
     inkscape:guide-bbox="true"
     showgrid="false"
     inkscape:window-maximized="0" />
  <metadata
     id="metadata7">
    <rdf:RDF>
      <cc:Work
         rdf:about="">
        <dc:format>image/svg+xml</dc:format>
        <dc:type
           rdf:resource="http://purl.org/dc/dcmitype/StillImage" />
      </cc:Work>
    </rdf:RDF>
  </metadata>
  <g
     inkscape:label="Layer 1"
     inkscape:groupmode="layer"
     id="layer1"
     transform="translate(-10.15551,-175.0227)">
    <path
       sodipodi:type="arc"
       style="fill:#ff0000;fill-opacity:1;stroke:#000000;stroke-width:18.30812454;stroke-miterlimit:4;stroke-dasharray:none;stroke-opacity:1"
       id="path2774"
       sodipodi:cx="349.51291"
       sodipodi:cy="-512.38019"
       sodipodi:rx="328.20334"
       sodipodi:ry="328.20334"
       d="m 677.71625,-512.38019 a 328.20334,328.20334 0 0 1 -164.10168,284.23243 328.20334,328.20334 0 0 1 -328.20334,0 A 328.20334,328.20334 0 0 1 21.30957,-512.3802"
       sodipodi:start="0"
       sodipodi:end="3.1415927"
       transform="scale(1,-1)"
       sodipodi:open="true" />
    <path
       sodipodi:type="arc"
       style="fill:#f2f2f2;fill-opacity:1;stroke:#000000;stroke-width:18.30026436;stroke-miterlimit:4;stroke-dasharray:none;stroke-opacity:1"
       id="path2784"
       sodipodi:cx="349.42715"
       sodipodi:cy="509.86578"
       sodipodi:rx="328.06244"
       sodipodi:ry="328.06244"
       d="M 677.48959,509.86578 A 328.06244,328.06244 0 0 1 513.45837,793.97619 328.06244,328.06244 0 0 1 185.39593,793.97618 328.06244,328.06244 0 0 1 21.364716,509.86577"
       sodipodi:start="0"
       sodipodi:end="3.1415927"
       sodipodi:open="true" />
    <rect
       style="fill:black;fill-opacity:1;stroke:black;stroke-width:18.30812073;stroke-miterlimit:4;stroke-dasharray:none;stroke-opacity:1"
       id="rect2796"
       width="640.96844"
       height="54.334965"
       x="27.916542"
       y="-543.58405"
       transform="scale(1,-1)" />
    <path
       transform="matrix(0,-4.180021,-4.179929,0,2511.532,1956.897)"
       sodipodi:end="7.7984207"
       sodipodi:start="1.5158726"
       d="m 346.66304,536.97405 a 20.535715,20.535715 0 0 1 -21.6319,-19.37415 20.535715,20.535715 0 0 1 19.3707,-21.63499 20.535715,20.535715 0 0 1 21.63807,19.36726 20.535715,20.535715 0 0 1 -19.36381,21.64116"
       sodipodi:ry="20.535715"
       sodipodi:rx="20.535715"
       sodipodi:cy="516.4693"
       sodipodi:cx="345.53571"
       id="path2798"
       style="fill:#f2f2f2;fill-opacity:1;stroke:black;stroke-width:4.33016944;stroke-miterlimit:4;stroke-dasharray:none;stroke-opacity:1"
       sodipodi:type="arc"
       sodipodi:open="true" />
    <path
       transform="matrix(0,-2.251635,-2.251585,0,1515.508,1288.684)"
       sodipodi:open="true"
       sodipodi:end="7.7853262"
       sodipodi:start="1.5158726"
       d="m 346.66304,536.97405 a 20.535715,20.535715 0 0 1 -21.62809,-19.30704 20.535715,20.535715 0 0 1 19.23267,-21.69424 20.535715,20.535715 0 0 1 21.76014,19.15809 20.535715,20.535715 0 0 1 -19.08327,21.82578"
       sodipodi:ry="20.535715"
       sodipodi:rx="20.535715"
       sodipodi:cy="516.4693"
       sodipodi:cx="345.53571"
       id="path2802"
       style="fill:#999;fill-opacity:1;stroke:none;stroke-width:7.0999999;stroke-miterlimit:4;stroke-dasharray:none;stroke-opacity:1"
       sodipodi:type="arc" />
  </g>
</svg>
